<svg width="39" height="40" viewBox="0 0 39 40" fill="none" xmlns="http://www.w3.org/2000/svg">
<path d="M6.82669 32.9939H29.2704" stroke="#A97DD7" stroke-width="3" stroke-linecap="round" stroke-linejoin="round"/>
<path d="M29.2704 23.3887H27.7704C27.7704 24.2171 28.4419 24.8887 29.2704 24.8887V23.3887ZM29.2704 13.7834L29.2704 12.2834C28.8725 12.2834 28.491 12.4415 28.2097 12.7228C27.9284 13.0041 27.7704 13.3856 27.7704 13.7834L29.2704 13.7834ZM30.8735 13.7834V12.2834V13.7834ZM30.8735 23.3887V24.8887H30.8735L30.8735 23.3887ZM30.7704 23.3887L30.7704 13.7834L27.7704 13.7834L27.7704 23.3887H30.7704ZM29.2704 15.2834L30.8735 15.2834L30.8735 12.2834L29.2704 12.2834L29.2704 15.2834ZM30.8735 21.8887H29.2704V24.8887H30.8735V21.8887ZM34.1828 18.5861C34.1828 20.4081 32.7032 21.8887 30.8735 21.8887L30.8735 24.8887C34.3561 24.8887 37.1828 22.0689 37.1828 18.5861H34.1828ZM30.8735 15.2834C32.7032 15.2834 34.1828 16.7641 34.1828 18.5861H37.1828C37.1828 15.1033 34.3561 12.2834 30.8735 12.2834L30.8735 15.2834Z" fill="#A97DD7"/>
<path d="M6.82669 13.7834V12.2834C5.99826 12.2834 5.32669 12.955 5.32669 13.7834H6.82669ZM29.2704 13.7834H30.7704C30.7704 12.955 30.0988 12.2834 29.2704 12.2834V13.7834ZM6.82669 15.2834H29.2704V12.2834H6.82669V15.2834ZM27.7704 13.7834V21.7878H30.7704V13.7834H27.7704ZM8.32669 21.7878V13.7834H5.32669V21.7878H8.32669ZM18.0485 31.494C12.6773 31.494 8.32669 27.1464 8.32669 21.7878H5.32669C5.32669 28.8072 11.0244 34.494 18.0485 34.494V31.494ZM27.7704 21.7878C27.7704 27.1464 23.4197 31.494 18.0485 31.494V34.494C25.0726 34.494 30.7704 28.8072 30.7704 21.7878H27.7704Z" fill="#A97DD7"/>
<path d="M24.461 5.77905L22.8579 8.98081" stroke="#A97DD7" stroke-width="3" stroke-linecap="round" stroke-linejoin="round"/>
<path d="M19.6516 5.77905L18.0485 8.98081" stroke="#A97DD7" stroke-width="3" stroke-linecap="round" stroke-linejoin="round"/>
<path d="M14.8423 5.77905L13.2392 8.98081" stroke="#A97DD7" stroke-width="3" stroke-linecap="round" stroke-linejoin="round"/>
</svg>
