<svg width="40" height="40" viewBox="0 0 40 40" fill="none" xmlns="http://www.w3.org/2000/svg">
<path d="M19.7764 18.5859C21.5472 18.5859 22.9827 17.1524 22.9827 15.3841C22.9827 13.6158 21.5472 12.1824 19.7764 12.1824C18.0057 12.1824 16.5702 13.6158 16.5702 15.3841C16.5702 17.1524 18.0057 18.5859 19.7764 18.5859Z" stroke="#A97DD7" stroke-width="3" stroke-linecap="round" stroke-linejoin="round"/>
<path d="M19.7764 34.5948C19.7764 34.5948 30.9983 26.8367 30.9983 16.862C30.9983 13.9227 29.816 11.1037 27.7115 9.02519C25.607 6.94672 22.7527 5.77905 19.7764 5.77905C16.8002 5.77905 13.9459 6.94672 11.8414 9.02519C9.73689 11.1037 8.5546 13.9227 8.5546 16.862C8.5546 26.8367 19.7764 34.5948 19.7764 34.5948Z" stroke="#A97DD7" stroke-width="3" stroke-linecap="round" stroke-linejoin="round"/>
</svg>
