<svg width="39" height="40" viewBox="0 0 39 40" fill="none" xmlns="http://www.w3.org/2000/svg">
<path d="M31.8044 16.5066L20.5825 6.70127C19.9781 6.17314 19.0756 6.17314 18.4712 6.70127L7.24936 16.5066C6.90146 16.8106 6.7019 17.2498 6.7019 17.7114V31.3929C6.7019 32.277 7.41965 32.9938 8.30502 32.9938H14.7175C15.6029 32.9938 16.3206 32.277 16.3206 31.3929V24.9894C16.3206 24.1052 17.0384 23.3885 17.9237 23.3885H21.13C22.0154 23.3885 22.7331 24.1052 22.7331 24.9894V31.3929C22.7331 32.277 23.4508 32.9938 24.3362 32.9938H30.7487C31.6341 32.9938 32.3518 32.277 32.3518 31.3929V17.7114C32.3518 17.2498 32.1523 16.8106 31.8044 16.5066Z" stroke="#A97DD7" stroke-width="3" stroke-linecap="round" stroke-linejoin="round"/>
</svg>
