<svg width="60" height="60" viewBox="0 0 60 60" fill="none" xmlns="http://www.w3.org/2000/svg">
<path d="M49.1463 24.253L31.6463 8.94046C30.7037 8.11571 29.2963 8.11571 28.3537 8.94046L10.8537 24.253C10.3112 24.7277 10 25.4135 10 26.1344V47.5C10 48.8807 11.1193 50 12.5 50H22.5C23.8807 50 25 48.8807 25 47.5V37.5C25 36.1193 26.1193 35 27.5 35H32.5C33.8807 35 35 36.1193 35 37.5V47.5C35 48.8807 36.1193 50 37.5 50H47.5C48.8807 50 50 48.8807 50 47.5V26.1344C50 25.4135 49.6888 24.7277 49.1463 24.253Z" stroke="#A97DD7" stroke-width="6" stroke-linecap="round" stroke-linejoin="round"/>
</svg>
