<svg width="34" height="34" viewBox="0 0 34 34" fill="none" xmlns="http://www.w3.org/2000/svg">
<path d="M16.8356 15.6588C18.3384 15.6588 19.5566 14.4406 19.5566 12.9378C19.5566 11.435 18.3384 10.2168 16.8356 10.2168C15.3329 10.2168 14.1146 11.435 14.1146 12.9378C14.1146 14.4406 15.3329 15.6588 16.8356 15.6588Z" stroke="#A97DD7" stroke-width="3" stroke-linecap="round" stroke-linejoin="round"/>
<path d="M16.8356 29.264C16.8356 29.264 26.3592 22.6708 26.3592 14.1938C26.3592 11.6957 25.3558 9.30001 23.5698 7.53363C21.7838 5.76725 19.3614 4.7749 16.8356 4.7749C14.3098 4.7749 11.8875 5.76725 10.1015 7.53363C8.31547 9.30001 7.3121 11.6957 7.3121 14.1938C7.3121 22.6708 16.8356 29.264 16.8356 29.264Z" stroke="#A97DD7" stroke-width="3" stroke-linecap="round" stroke-linejoin="round"/>
</svg>
