<svg width="33" height="34" viewBox="0 0 33 34" fill="none" xmlns="http://www.w3.org/2000/svg">
<path d="M5.53143 27.9033H24.5785" stroke="#A97DD7" stroke-width="3" stroke-linecap="round" stroke-linejoin="round"/>
<path d="M24.5785 19.7404L23.0785 19.7404C23.0785 20.5688 23.7501 21.2404 24.5785 21.2404V19.7404ZM24.5785 11.5774L24.5785 10.0774C23.7501 10.0774 23.0785 10.749 23.0785 11.5774L24.5785 11.5774ZM25.939 11.5774L25.939 10.0774L25.939 11.5774ZM25.939 19.7404L25.939 21.2404H25.939L25.939 19.7404ZM26.0785 19.7404L26.0785 11.5774L23.0785 11.5774L23.0785 19.7404L26.0785 19.7404ZM24.5785 13.0774L25.939 13.0774L25.939 10.0774L24.5785 10.0774L24.5785 13.0774ZM25.939 18.2404H24.5785V21.2404H25.939V18.2404ZM28.5205 15.6589C28.5205 17.0846 27.3647 18.2404 25.939 18.2404L25.939 21.2404C29.0216 21.2404 31.5205 18.7415 31.5205 15.6589L28.5205 15.6589ZM25.939 13.0774C27.3647 13.0774 28.5205 14.2332 28.5205 15.6589L31.5205 15.6589C31.5205 12.5763 29.0216 10.0774 25.939 10.0774L25.939 13.0774Z" fill="#A97DD7"/>
<path d="M5.53143 11.5774V10.0774C4.70301 10.0774 4.03143 10.749 4.03143 11.5774H5.53143ZM24.5785 11.5774H26.0785C26.0785 10.749 25.4069 10.0774 24.5785 10.0774V11.5774ZM5.53143 13.0774H24.5785V10.0774H5.53143V13.0774ZM23.0785 11.5774V18.3799H26.0785V11.5774H23.0785ZM7.03143 18.3799V11.5774H4.03143V18.3799H7.03143ZM15.055 26.4034C10.6237 26.4034 7.03143 22.8112 7.03143 18.3799H4.03143C4.03143 24.468 8.96684 29.4034 15.055 29.4034V26.4034ZM23.0785 18.3799C23.0785 22.8112 19.4862 26.4034 15.055 26.4034V29.4034C21.1431 29.4034 26.0785 24.468 26.0785 18.3799H23.0785Z" fill="#A97DD7"/>
<path d="M20.497 4.7749L19.1365 7.49591" stroke="#A97DD7" stroke-width="3" stroke-linecap="round" stroke-linejoin="round"/>
<path d="M16.4155 4.7749L15.055 7.49591" stroke="#A97DD7" stroke-width="3" stroke-linecap="round" stroke-linejoin="round"/>
<path d="M12.334 4.7749L10.9734 7.49591" stroke="#A97DD7" stroke-width="3" stroke-linecap="round" stroke-linejoin="round"/>
</svg>
