<svg width="34" height="34" viewBox="0 0 34 34" fill="none" xmlns="http://www.w3.org/2000/svg">
<path d="M27.4147 13.8919L17.8912 5.55879C17.3783 5.10996 16.6123 5.10996 16.0994 5.55879L6.57587 13.8919C6.28062 14.1502 6.11127 14.5234 6.11127 14.9158V26.5429C6.11127 27.2943 6.72039 27.9035 7.47177 27.9035H12.9138C13.6652 27.9035 14.2743 27.2943 14.2743 26.5429V21.1009C14.2743 20.3495 14.8834 19.7404 15.6348 19.7404H18.3558C19.1072 19.7404 19.7163 20.3495 19.7163 21.1009V26.5429C19.7163 27.2943 20.3254 27.9035 21.0768 27.9035H26.5188C27.2702 27.9035 27.8793 27.2943 27.8793 26.5429V14.9158C27.8793 14.5234 27.71 14.1502 27.4147 13.8919Z" stroke="#A97DD7" stroke-width="3" stroke-linecap="round" stroke-linejoin="round"/>
</svg>
