<svg width="40" height="40" viewBox="0 0 40 40" fill="none" xmlns="http://www.w3.org/2000/svg">
<path d="M19.7375 18.6054C21.5416 18.6054 23.0041 17.1429 23.0041 15.3388C23.0041 13.5348 21.5416 12.0723 19.7375 12.0723C17.9334 12.0723 16.4709 13.5348 16.4709 15.3388C16.4709 17.1429 17.9334 18.6054 19.7375 18.6054Z" stroke="#A97DD7" stroke-width="3" stroke-linecap="round" stroke-linejoin="round"/>
<path d="M19.7375 34.9382C19.7375 34.9382 31.1705 27.0231 31.1705 16.8464C31.1705 13.8475 29.966 10.9715 27.8219 8.85091C25.6778 6.73037 22.7697 5.53906 19.7375 5.53906C16.7053 5.53906 13.7973 6.73037 11.6531 8.85091C9.50904 10.9715 8.3045 13.8475 8.3045 16.8464C8.3045 27.0231 19.7375 34.9382 19.7375 34.9382Z" stroke="#A97DD7" stroke-width="3" stroke-linecap="round" stroke-linejoin="round"/>
</svg>
