<svg width="40" height="40" viewBox="0 0 40 40" fill="none" xmlns="http://www.w3.org/2000/svg">
<path d="M32.5831 16.4839L21.1501 6.48004C20.5343 5.94122 19.6148 5.94122 18.999 6.48004L7.566 16.4839C7.21155 16.7941 7.00824 17.2421 7.00824 17.7131V31.6715C7.00824 32.5736 7.73949 33.3048 8.64153 33.3048H15.1747C16.0767 33.3048 16.808 32.5736 16.808 31.6715V25.1384C16.808 24.2364 17.5392 23.5051 18.4412 23.5051H21.7078C22.6099 23.5051 23.3411 24.2364 23.3411 25.1384V31.6715C23.3411 32.5736 24.0724 33.3048 24.9744 33.3048H31.5075C32.4096 33.3048 33.1408 32.5736 33.1408 31.6715V17.7131C33.1408 17.2421 32.9375 16.7941 32.5831 16.4839Z" stroke="#A97DD7" stroke-width="3" stroke-linecap="round" stroke-linejoin="round"/>
</svg>
