<svg width="41" height="40" viewBox="0 0 41 40" fill="none" xmlns="http://www.w3.org/2000/svg">
<path d="M7.33973 33.3049H30.2057" stroke="#A97DD7" stroke-width="3" stroke-linecap="round" stroke-linejoin="round"/>
<path d="M30.2057 23.5053L28.7057 23.5053C28.7057 24.3337 29.3773 25.0053 30.2057 25.0053V23.5053ZM30.2057 13.7056L30.2057 12.2056C29.3773 12.2056 28.7057 12.8771 28.7057 13.7056L30.2057 13.7056ZM31.839 13.7056L31.839 12.2056L31.839 13.7056ZM31.839 23.5053L31.839 25.0053H31.839L31.839 23.5053ZM31.7057 23.5053L31.7057 13.7056L28.7057 13.7056L28.7057 23.5053L31.7057 23.5053ZM30.2057 15.2056L31.839 15.2056L31.839 12.2056L30.2057 12.2056L30.2057 15.2056ZM31.839 22.0053H30.2057V25.0053H31.839V22.0053ZM35.2389 18.6054C35.2389 20.4831 33.7167 22.0053 31.839 22.0053L31.839 25.0053C35.3736 25.0053 38.2389 22.14 38.2389 18.6054L35.2389 18.6054ZM31.839 15.2056C33.7167 15.2056 35.2389 16.7277 35.2389 18.6054L38.2389 18.6054C38.2389 15.0709 35.3736 12.2056 31.839 12.2056L31.839 15.2056Z" fill="#A97DD7"/>
<path d="M7.33973 13.7056V12.2056C6.5113 12.2056 5.83973 12.8771 5.83973 13.7056H7.33973ZM30.2057 13.7056H31.7057C31.7057 12.8771 31.0342 12.2056 30.2057 12.2056V13.7056ZM7.33973 15.2056H30.2057V12.2056H7.33973V15.2056ZM28.7057 13.7056V21.872H31.7057V13.7056H28.7057ZM8.83973 21.872V13.7056H5.83973V21.872H8.83973ZM18.7727 31.805C13.2869 31.805 8.83973 27.3578 8.83973 21.872H5.83973C5.83973 29.0147 11.63 34.805 18.7727 34.805V31.805ZM28.7057 21.872C28.7057 27.3578 24.2586 31.805 18.7727 31.805V34.805C25.9154 34.805 31.7057 29.0147 31.7057 21.872H28.7057Z" fill="#A97DD7"/>
<path d="M25.3059 5.53906L23.6726 8.80564" stroke="#A97DD7" stroke-width="3" stroke-linecap="round" stroke-linejoin="round"/>
<path d="M20.406 5.53906L18.7727 8.80564" stroke="#A97DD7" stroke-width="3" stroke-linecap="round" stroke-linejoin="round"/>
<path d="M15.5062 5.53906L13.8729 8.80564" stroke="#A97DD7" stroke-width="3" stroke-linecap="round" stroke-linejoin="round"/>
</svg>
